<svg width="25" height="25" viewBox="0 0 25 25" fill="none" xmlns="http://www.w3.org/2000/svg">
<path d="M12.18 21.947C12.3752 22.1419 12.6914 22.1419 12.8866 21.947L21.9924 12.8536C22.1879 12.6583 22.1879 12.3413 21.9924 12.146L20.9826 11.1376C20.7874 10.9427 20.4712 10.9427 20.276 11.1376L14.6133 16.7927C14.2982 17.1073 13.76 16.8841 13.76 16.4389L13.76 3.1998C13.76 2.92366 13.5361 2.6998 13.26 2.6998H11.8066C11.5305 2.6998 11.3066 2.92366 11.3066 3.1998L11.3066 16.4389C11.3066 16.8841 10.7684 17.1073 10.4533 16.7927L4.79062 11.1376C4.59541 10.9427 4.2792 10.9427 4.08399 11.1376L3.07425 12.146C2.87866 12.3413 2.87866 12.6583 3.07425 12.8536L12.18 21.947Z" fill="white"/>
</svg>
